# xmcd CD database file
#
# Track frame offsets:
#	150
#	10125
#	25490
#	30800
#	49020
#	64695
#	75830
#	92002
#	109972
#	114985
#	133322
#	146050
#
# Disc length: 2170 seconds
#
# Revision: 1
# Processed by: cddbd v1.4PL0 Copyright (c) Steve Scherf et al.
# Submitted via: Feurio! 1.64 - http://www.feurio.com
#
DISCID=9308780c
DTITLE=Pink Baxter - Baxter Live Vol. 2
DYEAR=1900
DGENRE=
TTITLE0=Intro
TTITLE1=Wunderbar
TTITLE2=Speech Baxter
TTITLE3=Dieter Thomas Heck
TTITLE4=Amerika
TTITLE5=Speech Baxter
TTITLE6=Total verrückt
TTITLE7=Endstation
TTITLE8=Speech Baxter
TTITLE9=Baxter Sling
TTITLE10=Speech Baxter
TTITLE11=C´est la vie
EXTD=
EXTT0=
EXTT1=
EXTT2=
EXTT3=
EXTT4=
EXTT5=
EXTT6=
EXTT7=
EXTT8=
EXTT9=
EXTT10=
EXTT11=
PLAYORDER=
